<svg xmlns="http://www.w3.org/2000/svg" width="64" height="64" viewBox="-17 -17 87 87"><defs><style>.cls-1{opacity:0;}.cls-2{fill:#19324d;stroke:#fff;stroke-linejoin:round;stroke-width:0.5px;}.cls-3{fill:none;stroke:#93acc9;stroke-linecap:round;stroke-width:2px;stroke-dasharray:4 7;}</style></defs><title>icon_DMN_Fichier 561</title><g id="Calque_2" data-name="Calque 2" transform="scale(0.8)"><g id="Calque_1-2" data-name="Calque 1"><rect class="cls-1" y="0.25" width="64" height="64"/><g id="cloudy"><path class="cls-2" d="M43.09,14.26a8.22,8.22,0,0,0-8.17-8.17,5.78,5.78,0,0,0-2.73.39,6.83,6.83,0,0,0-7-6.23,7,7,0,0,0-7,7,5,5,0,0,0,.39,2.34H17.41a7,7,0,0,0-7,7c0,3.9,2.73,7,6.62,7h17.9C39.59,22.43,43.09,18.93,43.09,14.26Z"/><path class="cls-2" d="M58.66,33.33a14,14,0,0,0-14-14A19.41,19.41,0,0,0,40,20.1,11.43,11.43,0,0,0,28.69,9.59,11.29,11.29,0,0,0,17.41,20.88a13.86,13.86,0,0,0,.78,3.89H16.63a11.29,11.29,0,0,0-.39,22.57H45.43A13.81,13.81,0,0,0,58.66,33.33Z"/></g><line class="cls-3" x1="20.7" y1="50.84" x2="18.34" y2="64.25"/><line class="cls-3" x1="31.28" y1="49.14" x2="28.91" y2="62.56"/></g></g></svg>