<svg xmlns="http://www.w3.org/2000/svg" width="64" height="64" viewBox="-14 -17 87 87"><defs><style>.cls-1{opacity:0;}.cls-2{fill:#19324d;stroke:#fff;stroke-linejoin:round;stroke-width:0.5px;}.cls-3{fill:none;stroke:#93acc9;stroke-linecap:round;stroke-width:2px;stroke-dasharray:4 4;}</style></defs><title>icon_DMN_Fichier 551</title><g id="Calque_2" data-name="Calque 2" transform="scale(0.8)"><g id="Calque_1-2" data-name="Calque 1"><rect class="cls-1" y="0.25" width="64" height="64"/><g id="cloudy"><path class="cls-2" d="M48.75,14a8,8,0,0,0-8-8,5.68,5.68,0,0,0-2.67.38A6.71,6.71,0,0,0,31.22.25a6.83,6.83,0,0,0-6.86,6.86,4.86,4.86,0,0,0,.38,2.29H23.6a6.83,6.83,0,0,0-6.86,6.86c0,3.81,2.66,6.86,6.48,6.86H40.75C45.32,22,48.75,18.55,48.75,14Z"/><path class="cls-2" d="M64,32.65A13.67,13.67,0,0,0,50.28,18.93a19.23,19.23,0,0,0-4.58.76A11.18,11.18,0,0,0,34.65,9.4a11.05,11.05,0,0,0-11,11,13.5,13.5,0,0,0,.76,3.81H22.83a11.06,11.06,0,0,0-.38,22.11H51A13.77,13.77,0,0,0,64,32.65Z"/></g><line class="cls-3" x1="25.68" y1="50.3" x2="23.36" y2="63.43"/><line class="cls-3" x1="33.03" y1="48.11" x2="30.72" y2="61.25"/><line class="cls-3" x1="39.08" y1="51.11" x2="36.77" y2="64.25"/></g></g></svg>