<svg xmlns="http://www.w3.org/2000/svg" width="64" height="64" viewBox="-14 -17 87 87"><defs><style>.cls-1{opacity:0;}.cls-2{fill:#19324d;stroke:#fff;stroke-linejoin:round;stroke-width:0.5px;}.cls-3{fill:none;stroke:#93acc9;stroke-linecap:round;stroke-width:2px;stroke-dasharray:4 7;}</style></defs><title>icon_DMN_Fichier 541</title><g id="Calque_2" data-name="Calque 2" transform="scale(0.8)"><g id="Calque_1-2" data-name="Calque 1"><rect class="cls-1" y="0.25" width="64" height="64"/><g id="cloudy"><path class="cls-2" d="M49.14,14a8,8,0,0,0-8-8,5.66,5.66,0,0,0-2.67.38A6.71,6.71,0,0,0,31.61.25a6.83,6.83,0,0,0-6.86,6.86,4.82,4.82,0,0,0,.38,2.28H24a6.83,6.83,0,0,0-6.86,6.86c0,3.81,2.67,6.86,6.48,6.86H40.76C45.33,22,49.14,18.54,49.14,14Z"/><path class="cls-2" d="M64,32.64A13.67,13.67,0,0,0,50.28,18.92a19.15,19.15,0,0,0-4.57.76A11.19,11.19,0,0,0,34.66,9.39a11.06,11.06,0,0,0-11,11.05,13.63,13.63,0,0,0,.76,3.82H22.85a11.05,11.05,0,0,0-.38,22.1H51C58.28,45.59,64,39.88,64,32.64Z"/></g><line class="cls-3" x1="21.01" y1="50.24" x2="18.69" y2="63.37"/><line class="cls-3" x1="27.91" y1="48.36" x2="25.6" y2="61.49"/><line class="cls-3" x1="34.4" y1="51.05" x2="32.09" y2="64.19"/><line class="cls-3" x1="41.11" y1="50.3" x2="38.8" y2="63.44"/><line class="cls-3" x1="48.09" y1="48.05" x2="45.77" y2="61.18"/><line class="cls-3" x1="54.51" y1="51.12" x2="52.2" y2="64.25"/></g></g></svg>