<?xml version="1.0" encoding="utf-8"?>
<!-- Generator: Adobe Illustrator 22.0.1, SVG Export Plug-In . SVG Version: 6.00 Build 0)  -->
<svg version="1.1" id="Calque_1" xmlns="http://www.w3.org/2000/svg" xmlns:xlink="http://www.w3.org/1999/xlink" x="0px" y="0px"
	width="64" height="64" viewBox="14 -7 25 68" style="enable-background:new 0 0 64 64;" xml:space="preserve">
<style type="text/css">
	.st0{filter:url(#blur);}
	.st1{fill:#FFA500;}
	.st2{fill:#19324d;stroke:#FFFFFF;stroke-width:1.2;stroke-linejoin:round;}
	.st3{fill:none;stroke:#93acc9;stroke-width:2;stroke-linecap:round;stroke-dasharray:4,7;}
</style>
<filter  height="100%" id="blur" width="100%">
	<feGaussianBlur  in="SourceAlpha" stdDeviation="3"></feGaussianBlur>
	<feOffset  dx="0" dy="4" result="offsetblur"></feOffset>
	<feComponentTransfer>
		<feFuncA  slope="0.05" type="linear"></feFuncA>
	</feComponentTransfer>
	<feMerge>
		<feMergeNode></feMergeNode>
		<feMergeNode  in="SourceGraphic"></feMergeNode>
	</feMerge>
</filter>
<g id="rainy-2" class="st0">
	<g transform="translate(20,10)">
		<g transform="translate(16,4), scale(0.8)">
			<g>
				<polygon class="st1" points="1.2,2 1.7,3.2 2.9,4.1 1.7,4.7 1.2,5.9 0.6,4.7 -0.9,4.1 0.6,3.2 				"/>
			</g>
			<g>
				<polygon class="st1" points="22.1,12.6 22.9,13.8 24.1,14.4 22.9,15.3 22.1,16.5 21.5,15.3 20.3,14.4 21.5,13.8 				"/>
			</g>
			<g>
				<g>
					<path class="st1" d="M12.9,14.4c0-3.8,2.1-7.4,5.3-9.1c-1.5-0.9-3.2-1.5-5.3-1.5C7,3.8,2.3,8.5,2.3,14.4S7,25,12.9,25
						c1.8,0,3.8-0.6,5.3-1.5C15,21.8,12.9,18.2,12.9,14.4z"/>
					<path class="st1" d="M12.9,26.2c-6.5,0-11.8-5.3-11.8-11.8S6.5,2.6,12.9,2.6c2.4,0,4.1,0.6,5.9,1.5c0.3,0.3,0.6,0.6,0.6,1.2
						c0,0.6-0.3,0.9-0.6,1.2c-2.9,1.8-4.7,4.7-4.7,8c0,3.2,1.8,6.5,4.7,8c0.3,0.3,0.6,0.6,0.6,1.2s-0.3,0.9-0.6,1.2
						C16.8,25.9,15,26.2,12.9,26.2z M12.9,5.3c-5,0-9.1,4.1-9.1,9.1s4.1,9.1,9.1,9.1c0.9,0,1.8,0,2.7-0.3c-2.4-2.4-3.8-5.3-3.8-8.8
						s1.5-6.5,3.8-8.8C14.7,5.3,13.8,5.3,12.9,5.3z"/>
				</g>
			</g>
		</g>
		<g>
			<path class="st2" d="M27.7,24.4c0-4.6-3.7-8.2-8.2-8.2c-1,0-1.9,0.2-2.8,0.5c-0.3-3.4-3.1-6.2-6.6-6.2c-3.7,0-6.7,3-6.7,6.7
				c0,0.8,0.2,1.6,0.4,2.3c-0.3-0.1-0.7-0.1-1-0.1c-3.7,0-6.7,3-6.7,6.7c0,3.6,2.9,6.6,6.5,6.7h17.2C24.2,32.3,27.7,28.8,27.7,24.4z
				"/>
		</g>
	</g>
	<g transform="translate(37,45), rotate(10)">
		<line class="st3" x1="-6" y1="1" x2="-6" y2="9"/>
	</g>
</g>
</svg>
