<?xml version="1.0" encoding="utf-8"?>
<!-- Generator: Adobe Illustrator 22.0.1, SVG Export Plug-In . SVG Version: 6.00 Build 0)  -->
<svg version="1.1" id="Calque_1" xmlns="http://www.w3.org/2000/svg" xmlns:xlink="http://www.w3.org/1999/xlink" x="0px" y="0px"
	width="64" height="64" viewBox="0 0 55 55" style="enable-background:new 0 0 64 64;" xml:space="preserve">
<style type="text/css">
	.st0{filter:url(#blur);}
	.st1{fill:#FFA500;}
	.st2{fill:#19324d;stroke:#FFFFFF;stroke-width:1.5;stroke-linejoin:round;}
	.st3{fill:none;stroke:#93acc9;stroke-width:2;stroke-linecap:round;stroke-dasharray:4,7;}
</style>
<filter  height="100%" id="blur" width="100%">
	<feGaussianBlur  in="SourceAlpha" stdDeviation="3"></feGaussianBlur>
	<feOffset  dx="0" dy="4" result="offsetblur"></feOffset>
	<feComponentTransfer>
		<feFuncA  slope="0.05" type="linear"></feFuncA>
	</feComponentTransfer>
	<feMerge>
		<feMergeNode></feMergeNode>
		<feMergeNode  in="SourceGraphic"></feMergeNode>
	</feMerge>
</filter>
<g id="rainy-1" class="st0">
	<g transform="translate(20,10)">
		<g transform="translate(16,4), scale(0.8)">
			<g>
				<polygon class="st1" points="2.1,6 2.5,6.9 3.3,7.5 2.5,7.9 2.1,8.8 1.7,7.9 0.6,7.5 1.7,6.9 				"/>
			</g>
			<g>
				<polygon class="st1" points="17.1,13.6 17.7,14.5 18.6,14.9 17.7,15.5 17.1,16.4 16.7,15.5 15.8,14.9 16.7,14.5 				"/>
			</g>
			<g>
				<g>
					<path class="st1" d="M10.5,14.9c0-2.8,1.5-5.3,3.8-6.6c-1.1-0.6-2.3-1.1-3.8-1.1c-4.2,0-7.6,3.4-7.6,7.6s3.4,7.6,7.6,7.6
						c1.3,0,2.8-0.4,3.8-1.1C12,20.2,10.5,17.7,10.5,14.9z"/>
					<path class="st1" d="M10.5,23.4c-4.7,0-8.5-3.8-8.5-8.5s3.8-8.5,8.5-8.5c1.7,0,3,0.4,4.2,1.1c0.2,0.2,0.4,0.4,0.4,0.8
						c0,0.4-0.2,0.6-0.4,0.8c-2.1,1.3-3.4,3.4-3.4,5.7c0,2.3,1.3,4.7,3.4,5.7c0.2,0.2,0.4,0.4,0.4,0.8s-0.2,0.6-0.4,0.8
						C13.3,23.2,12,23.4,10.5,23.4z M10.5,8.3c-3.6,0-6.6,3-6.6,6.6s3,6.6,6.6,6.6c0.6,0,1.3,0,1.9-0.2c-1.7-1.7-2.8-3.8-2.8-6.4
						s1.1-4.7,2.8-6.4C11.8,8.3,11.2,8.3,10.5,8.3z"/>
				</g>
			</g>
		</g>
		<g>
			<path class="st2" d="M25.5,25.1c0-3.9-3.1-7-7-7c-0.9,0-1.6,0.2-2.4,0.4c-0.3-2.9-2.6-5.3-5.6-5.3c-3.1,0-5.7,2.6-5.7,5.7
				c0,0.7,0.2,1.4,0.3,2c-0.3-0.1-0.6-0.1-0.8-0.1c-3.1,0-5.7,2.6-5.7,5.7c0,3.1,2.5,5.6,5.5,5.7h14.6
				C22.6,31.8,25.5,28.8,25.5,25.1z"/>
		</g>
	</g>
	<g transform="translate(34,46), rotate(10)">
		<line class="st3" x1="-6" y1="1" x2="-6" y2="9"/>
		<line class="st3" x1="0" y1="-1" x2="0" y2="7"/>
	</g>
</g>
</svg>
