<?xml version="1.0" encoding="utf-8"?>
<!-- Generator: Adobe Illustrator 22.0.1, SVG Export Plug-In . SVG Version: 6.00 Build 0)  -->
<svg version="1.1" id="Calque_1" xmlns="http://www.w3.org/2000/svg" xmlns:xlink="http://www.w3.org/1999/xlink" x="0px" y="0px"
	width="64" height="64" viewBox="-6 -8 28 28" style="enable-background:new 0 0 17.9 18.5;" xml:space="preserve">
<style type="text/css">
	.st0{fill:#FFA500;}
	.st1{fill:none;stroke:#FFA500;stroke-width:0.5;stroke-linecap:round;}
	.st2{fill:#19324d;stroke:#FFFFFF;stroke-width:0.5;stroke-linejoin:round;}
	.st3{fill:none;stroke:#93acc9;stroke-width:0.5;stroke-linecap:round;stroke-dasharray:4,4;}
</style>
<title>icon_DMN_Fichier 211</title>
<g id="Calque_2_1_">
	<g id="Calque_1-2">
		<g id="cloudy-day-2">
			<g transform="translate(16,4), scale(0.8)">
				<g>
					<polygon class="st0" points="-16.8,-2.4 -16.6,-2 -16.2,-1.7 -16.6,-1.5 -16.8,-1 -17,-1.5 -17.6,-1.7 -17,-2 					"/>
				</g>
				<g>
					<polygon class="st0" points="-9.4,1.4 -9.1,1.8 -8.7,2 -9.1,2.3 -9.4,2.7 -9.6,2.3 -10.1,2 -9.6,1.8 					"/>
				</g>
				<g>
					<g>
						<path class="st0" d="M-12.7,2c0-1.4,0.7-2.6,1.9-3.2c-0.5-0.3-1.1-0.5-1.9-0.5c-2.1,0-3.7,1.7-3.7,3.7s1.7,3.7,3.7,3.7
							c0.6,0,1.4-0.2,1.9-0.5C-11.9,4.6-12.7,3.3-12.7,2z"/>
						<path class="st0" d="M-12.7,6.1c-2.3,0-4.2-1.9-4.2-4.2s1.9-4.2,4.2-4.2c0.8,0,1.5,0.2,2.1,0.5c0.1,0.1,0.2,0.2,0.2,0.4
							c0,0.2-0.1,0.3-0.2,0.4c-1,0.6-1.7,1.7-1.7,2.8c0,1.1,0.6,2.3,1.7,2.8c0.1,0.1,0.2,0.2,0.2,0.4s-0.1,0.3-0.2,0.4
							C-11.3,6-11.9,6.1-12.7,6.1z M-12.7-1.2c-1.8,0-3.2,1.5-3.2,3.2s1.5,3.2,3.2,3.2c0.3,0,0.6,0,0.9-0.1
							c-0.8-0.8-1.4-1.9-1.4-3.1s0.5-2.3,1.4-3.1C-12-1.2-12.3-1.2-12.7-1.2z"/>
					</g>
				</g>
			</g>
			<line class="st1" x1="5.5" y1="9.4" x2="5.5" y2="10.8"/>
			<line class="st1" x1="9.4" y1="5.5" x2="10.8" y2="5.5"/>
			<line class="st1" x1="8.3" y1="8.3" x2="9.2" y2="9.2"/>
			<path class="st2" d="M17.6,9.2c0-2-1.6-3.6-3.6-3.6c0,0,0,0-0.1,0c-0.4,0-0.8,0.1-1.2,0.2c-0.2-1.6-1.7-2.7-3.3-2.5
				C8.1,3.5,7.1,4.6,7,6c0,0.3,0.1,0.7,0.2,1C7,7,6.9,7,6.7,7c-1.6,0-2.9,1.3-3,2.9s1.3,2.9,2.9,3h7.5C16.1,12.7,17.6,11.1,17.6,9.2
				z"/>
		</g>
		<line class="st3" x1="9.2" y1="14.7" x2="8.6" y2="18.1"/>
		<line class="st3" x1="11.1" y1="14.1" x2="10.5" y2="17.5"/>
		<line class="st3" x1="12.8" y1="14.8" x2="12.2" y2="18.3"/>
	</g>
</g>
</svg>
