<svg xmlns="http://www.w3.org/2000/svg" width="64" height="64" viewBox="-24 -24 96 96"><defs><style>.cls-1{opacity:0;}.cls-2{fill:none;stroke:#19324d;stroke-linecap:round;stroke-width:2px;}.cls-3{fill:#93acc9;}.cls-3,.cls-4{stroke:#fff;stroke-linejoin:round;stroke-width:0.5px;}.cls-4{fill:#19324d;}</style></defs><title>icon_DMN_Fichier 531</title><g id="Calque_2" data-name="Calque 2" transform="scale(0.8)"><g id="Calque_1-2" data-name="Calque 1"><rect class="cls-1" y="0.25" width="64" height="64"/><line class="cls-2" x1="24.05" y1="55.23" x2="24.05" y2="64.25"/><line class="cls-2" x1="27.49" y1="56.52" x2="21.05" y2="62.96"/><line class="cls-2" x1="28.78" y1="59.95" x2="19.33" y2="59.95"/><line class="cls-2" x1="27.49" y1="62.96" x2="21.05" y2="56.52"/><g id="cloudy"><path class="cls-3" d="M46.82,15.71a9.08,9.08,0,0,0-9-9,6.38,6.38,0,0,0-3,.43A7.55,7.55,0,0,0,27.06.25,7.7,7.7,0,0,0,19.33,8a5.45,5.45,0,0,0,.43,2.58H18.47a7.69,7.69,0,0,0-7.73,7.73c0,4.3,3,7.73,7.3,7.73H37.8C43,24.73,46.82,20.87,46.82,15.71Z"/><path class="cls-4" d="M64,36.76A15.39,15.39,0,0,0,48.54,21.3a21.58,21.58,0,0,0-5.16.86,12.6,12.6,0,0,0-12.45-11.6A12.46,12.46,0,0,0,18.47,23a15.28,15.28,0,0,0,.86,4.29H17.61a12.46,12.46,0,0,0-.43,24.91H49.4A15.84,15.84,0,0,0,64,36.76Z"/></g><line class="cls-2" x1="41.23" y1="55.23" x2="41.23" y2="64.25"/><line class="cls-2" x1="44.24" y1="56.52" x2="37.8" y2="62.96"/><line class="cls-2" x1="45.96" y1="59.95" x2="36.51" y2="59.95"/><line class="cls-2" x1="44.24" y1="62.96" x2="37.8" y2="56.52"/></g></g></svg>