<svg xmlns="http://www.w3.org/2000/svg" width="64" height="64" viewBox="9 -12.5 25 68"><defs><style>.cls-1{opacity:0;}.cls-2{fill:orange;}.cls-3{fill:none;stroke:#93acc9;stroke-linecap:round;stroke-linejoin:round;stroke-width:2px;}</style></defs><title>icon_DMN_Fichier 411</title><g id="Calque_2" data-name="Calque 2" transform="scale(0.7)"><g id="Calque_1-2" data-name="Calque 1"><rect class="cls-1" x="1" width="64" height="64"/><polygon class="cls-2" points="17.85 14.06 18.72 15.81 20.47 17.12 18.72 18 17.85 19.75 16.97 18 14.79 17.12 16.97 15.81 17.85 14.06"/><polygon class="cls-2" points="48.92 29.81 50.23 31.56 51.98 32.44 50.23 33.75 48.92 35.5 48.04 33.75 46.29 32.44 48.04 31.56 48.92 29.81"/><path class="cls-2" d="M35.35,32.44a15.48,15.48,0,0,1,7.88-13.57,15.14,15.14,0,0,0-7.88-2.19,15.76,15.76,0,0,0,0,31.51A16.31,16.31,0,0,0,43.23,46,15.45,15.45,0,0,1,35.35,32.44Z"/><path class="cls-2" d="M35.35,49.94a17.51,17.51,0,0,1,0-35,18.51,18.51,0,0,1,8.75,2.19,2.18,2.18,0,0,1,0,3.5,13.81,13.81,0,0,0-7,11.82,13.29,13.29,0,0,0,7,11.81A2.28,2.28,0,0,1,45,46a2.25,2.25,0,0,1-.88,1.75A16.25,16.25,0,0,1,35.35,49.94Zm0-31.07a13.57,13.57,0,0,0,0,27.13,12.33,12.33,0,0,0,3.94-.43,18,18,0,0,1,0-26.26A12.06,12.06,0,0,0,35.35,18.87Z"/><line class="cls-3" x1="32.18" y1="26.2" x2="65" y2="26.2"/><line class="cls-3" x1="1" y1="40.42" x2="33.82" y2="40.42"/></g></g></svg>