<svg xmlns="http://www.w3.org/2000/svg" width="64" height="64" viewBox="-24 -24 96 96"><defs><style>.cls-1{opacity:0;}.cls-2{fill:#93acc9;}.cls-2,.cls-3{stroke:#fff;stroke-linejoin:round;stroke-width:0.5px;}.cls-3{fill:#19324d;}.cls-4{fill:none;stroke:#19324d;stroke-linecap:round;stroke-width:2px;}</style></defs><title>icon_DMN_Fichier 521</title><g id="Calque_2" data-name="Calque 2" transform="scale(0.8)"><g id="Calque_1-2" data-name="Calque 1"><rect class="cls-1" x="0.27" y="0.35" width="64" height="64" transform="translate(-0.35 64.34) rotate(-89.51)"/><g id="cloudy"><path class="cls-2" d="M44.87,16.09a9.19,9.19,0,0,0-9.06-9.22,6.42,6.42,0,0,0-3.05.41A7.67,7.67,0,0,0,25,.25,7.79,7.79,0,0,0,17.08,8a5.49,5.49,0,0,0,.41,2.62H16.18a7.8,7.8,0,0,0-7.9,7.76c0,4.36,3,7.87,7.33,7.9l19.6.17C40.88,25.2,44.83,20.88,44.87,16.09Z"/><path class="cls-3" d="M62.11,37.57a15.61,15.61,0,0,0-15.54-15.8,21.65,21.65,0,0,0-5.24.82A12.78,12.78,0,0,0,28.81,10.73,12.62,12.62,0,0,0,16.08,23.25a14.93,14.93,0,0,0,.83,4.36H15.17a12.63,12.63,0,0,0-.65,25.24l32.65.28C55.45,52.32,62,45.85,62.11,37.57Z"/></g><line class="cls-4" x1="15.37" y1="54.59" x2="15.29" y2="64.17"/><line class="cls-4" x1="18.41" y1="55.92" x2="11.82" y2="62.4"/><line class="cls-4" x1="19.69" y1="59.42" x2="10.54" y2="59.34"/><line class="cls-4" x1="18.36" y1="62.45" x2="11.88" y2="55.87"/><line class="cls-4" x1="30.61" y1="54.72" x2="30.53" y2="64.3"/><line class="cls-4" x1="33.65" y1="56.05" x2="27.06" y2="62.53"/><line class="cls-4" x1="34.92" y1="59.55" x2="25.78" y2="59.47"/><line class="cls-4" x1="33.59" y1="62.58" x2="27.12" y2="56"/><line class="cls-4" x1="47.59" y1="54.87" x2="47.51" y2="64.44"/><line class="cls-4" x1="51.06" y1="56.2" x2="44.04" y2="62.67"/><line class="cls-4" x1="52.34" y1="59.7" x2="42.76" y2="59.61"/><line class="cls-4" x1="51.01" y1="62.73" x2="44.1" y2="56.14"/></g></g></svg>