<svg xmlns="http://www.w3.org/2000/svg" width="64" height="64" viewBox="-20 -20 80 80"><defs><style>.cls-1{opacity:0;}.cls-2{fill:#93acc9;}.cls-2,.cls-3{stroke:#fff;stroke-linejoin:round;stroke-width:0.5px;}.cls-3{fill:#19324d;}.cls-4{fill:none;stroke:#19324d;stroke-linecap:round;stroke-width:2px;}</style></defs><title>icon_DMN_Fichier 511</title><g id="Calque_2" data-name="Calque 2" transform="scale(0.8)"><g id="Calque_1-2" data-name="Calque 1"><rect class="cls-1" y="0.25" width="64" height="64"/><g id="cloudy"><path class="cls-2" d="M42.31,13.27a7.65,7.65,0,0,0-7.6-7.6A5.25,5.25,0,0,0,32.18,6,6.36,6.36,0,0,0,25.67.25a6.49,6.49,0,0,0-6.51,6.51,4.51,4.51,0,0,0,.37,2.17H18.44a6.48,6.48,0,0,0-6.51,6.51,6.18,6.18,0,0,0,6.15,6.5H34.71C39.05,20.86,42.31,17.24,42.31,13.27Z"/><path class="cls-3" d="M56.77,31a13,13,0,0,0-13-13,18.31,18.31,0,0,0-4.34.72A10.61,10.61,0,0,0,28.93,8.93,10.49,10.49,0,0,0,18.44,19.41,12.92,12.92,0,0,0,19.16,23H17.72a10.49,10.49,0,0,0-.36,21H44.47C51,43.28,56.77,37.85,56.77,31Z"/></g><line class="cls-4" x1="18.08" y1="45.45" x2="18.08" y2="53.4"/><line class="cls-4" x1="20.61" y1="46.53" x2="15.19" y2="52.32"/><line class="cls-4" x1="22.06" y1="49.43" x2="14.1" y2="49.43"/><line class="cls-4" x1="20.61" y1="52.32" x2="15.19" y2="46.53"/><line class="cls-4" x1="30.73" y1="45.45" x2="30.73" y2="53.4"/><line class="cls-4" x1="33.27" y1="46.53" x2="27.84" y2="52.32"/><line class="cls-4" x1="34.71" y1="49.43" x2="26.76" y2="49.43"/><line class="cls-4" x1="33.27" y1="52.32" x2="27.84" y2="46.53"/><line class="cls-4" x1="44.84" y1="45.45" x2="44.84" y2="53.4"/><line class="cls-4" x1="47.73" y1="46.53" x2="41.94" y2="52.32"/><line class="cls-4" x1="48.81" y1="49.43" x2="40.86" y2="49.43"/><line class="cls-4" x1="47.73" y1="52.32" x2="41.94" y2="46.53"/><line class="cls-4" x1="24.23" y1="56.3" x2="24.23" y2="64.25"/><line class="cls-4" x1="27.12" y1="57.74" x2="21.33" y2="63.17"/><line class="cls-4" x1="28.2" y1="60.27" x2="20.25" y2="60.27"/><line class="cls-4" x1="27.12" y1="63.17" x2="21.33" y2="57.74"/><line class="cls-4" x1="36.88" y1="56.3" x2="36.88" y2="64.25"/><line class="cls-4" x1="39.77" y1="57.74" x2="33.99" y2="63.17"/><line class="cls-4" x1="40.86" y1="60.27" x2="32.9" y2="60.27"/><line class="cls-4" x1="39.77" y1="63.17" x2="33.99" y2="57.74"/></g></g></svg>