<?xml version="1.0" encoding="utf-8"?>
<!-- Generator: Adobe Illustrator 22.0.1, SVG Export Plug-In . SVG Version: 6.00 Build 0)  -->
<svg version="1.1" id="Calque_1" xmlns="http://www.w3.org/2000/svg" xmlns:xlink="http://www.w3.org/1999/xlink" x="0px" y="0px"
	width="64" height="64" viewBox="0 0 57 57">
<style type="text/css">
	.st0{filter:url(#blur);}
	.st1{fill:#FFA500;}
	.st2{fill:#19324d;stroke:#FFFFFF;stroke-width:1.5;stroke-linejoin:round;}
	.st3{fill:none;stroke:#19324d;stroke-width:1.2;stroke-linecap:round;}
	.st4{fill:none;stroke:#19324d;stroke-linecap:round;}
</style>
<filter  height="100%" id="blur" width="100%">
	<feGaussianBlur  in="SourceAlpha" stdDeviation="3"></feGaussianBlur>
	<feOffset  dx="0" dy="4" result="offsetblur"></feOffset>
	<feComponentTransfer>
		<feFuncA  slope="0.05" type="linear"></feFuncA>
	</feComponentTransfer>
	<feMerge>
		<feMergeNode></feMergeNode>
		<feMergeNode  in="SourceGraphic"></feMergeNode>
	</feMerge>
</filter>
<g id="snowy-1" class="st0">
	<g transform="translate(20,10)">
		<g transform="translate(16,4), scale(0.8)">
			<g>
				<polygon class="st1" points="-0.1,6.2 0.4,7.2 1.4,8 0.4,8.5 -0.1,9.5 -0.6,8.5 -1.9,8 -0.6,7.2 				"/>
			</g>
			<g>
				<polygon class="st1" points="17.6,15.2 18.4,16.2 19.4,16.7 18.4,17.5 17.6,18.5 17.1,17.5 16.1,16.7 17.1,16.2 				"/>
			</g>
			<g>
				<g>
					<path class="st1" d="M9.9,16.7c0-3.3,1.8-6.3,4.5-7.8c-1.3-0.8-2.8-1.3-4.5-1.3c-5,0-9,4-9,9s4,9,9,9c1.5,0,3.3-0.5,4.5-1.3
						C11.6,23,9.9,20,9.9,16.7z"/>
					<path class="st1" d="M9.9,26.7c-5.5,0-10-4.5-10-10s4.5-10,10-10c2,0,3.5,0.5,5,1.3c0.3,0.3,0.5,0.5,0.5,1c0,0.5-0.3,0.8-0.5,1
						c-2.5,1.5-4,4-4,6.8c0,2.8,1.5,5.5,4,6.8c0.3,0.3,0.5,0.5,0.5,1c0,0.5-0.3,0.8-0.5,1C13.1,26.5,11.6,26.7,9.9,26.7z M9.9,9
						c-4.3,0-7.8,3.5-7.8,7.8s3.5,7.8,7.8,7.8c0.8,0,1.5,0,2.3-0.3c-2-2-3.3-4.5-3.3-7.5s1.3-5.5,3.3-7.5C11.4,9,10.6,9,9.9,9z"/>
				</g>
			</g>
		</g>
		<g>
			<path class="st2" d="M25.5,25.1c0-3.9-3.1-7-7-7c-0.9,0-1.6,0.2-2.4,0.4c-0.3-2.9-2.6-5.3-5.6-5.3c-3.1,0-5.7,2.6-5.7,5.7
				c0,0.7,0.2,1.4,0.3,2c-0.3-0.1-0.6-0.1-0.8-0.1c-3.1,0-5.7,2.6-5.7,5.7c0,3.1,2.5,5.6,5.5,5.7h14.6
				C22.6,31.8,25.5,28.8,25.5,25.1z"/>
		</g>
	</g>
	<g transform="translate(20,9)">
		<g>
			<g transform="translate(7,28)">
				<line class="st3" x1="0" y1="6.5" x2="0" y2="11.5"/>
				<line class="st4" x1="1.8" y1="7.2" x2="-1.8" y2="10.8"/>
				<line class="st4" x1="2.5" y1="9" x2="-2.5" y2="9"/>
				<line class="st4" x1="1.8" y1="10.8" x2="-1.8" y2="7.2"/>
			</g>
		</g>
		<g>
			<g transform="translate(16,28)">
				<line class="st3" x1="0" y1="6.5" x2="0" y2="11.5"/>
				<line class="st4" x1="1.8" y1="7.2" x2="-1.8" y2="10.8"/>
				<line class="st4" x1="2.5" y1="9" x2="-2.5" y2="9"/>
				<line class="st4" x1="1.8" y1="10.8" x2="-1.8" y2="7.2"/>
			</g>
		</g>
	</g>
</g>
</svg>
