<svg xmlns="http://www.w3.org/2000/svg" width="64" height="64" viewBox="-20 -20 74 74"><defs><style>.cls-1{opacity:0;}.cls-2{fill:orange;}.cls-3{fill:#19324d;}.cls-3,.cls-4{stroke:#fff;stroke-linejoin:round;stroke-width:0.5px;}.cls-4{fill:#93acc9;}.cls-5{fill:none;stroke:#19324d;stroke-linecap:round;stroke-width:2px;}</style></defs><title>icon_DMN_Fichier 501</title><g id="Calque_2" data-name="Calque 2" transform="scale(0.8)"><g id="Calque_1-2" data-name="Calque 1"><rect class="cls-1" width="64" height="64"/><polygon class="cls-2" points="1.77 1.22 2.66 2.4 3.84 3.29 2.66 3.88 1.77 5.06 1.18 3.88 0 3.29 1.18 2.4 1.77 1.22"/><polygon class="cls-2" points="23.06 11.86 23.95 13.04 25.13 13.63 23.95 14.52 23.06 15.7 22.47 14.52 21.28 13.63 22.47 13.04 23.06 11.86"/><path class="cls-2" d="M13.89,13.64a10.44,10.44,0,0,1,5.32-9.17A10.15,10.15,0,0,0,13.89,3a10.65,10.65,0,0,0,0,21.29,11,11,0,0,0,5.32-1.48A10.44,10.44,0,0,1,13.89,13.64Z"/><path class="cls-2" d="M13.89,25.46a11.83,11.83,0,0,1,0-23.65,12.5,12.5,0,0,1,5.92,1.48,1.54,1.54,0,0,1,.59,1.18,1.54,1.54,0,0,1-.59,1.18,9.32,9.32,0,0,0-4.73,8,9,9,0,0,0,4.73,8,1.48,1.48,0,0,1,0,2.36A11.7,11.7,0,0,1,13.89,25.46Zm0-21a9.17,9.17,0,0,0,0,18.33,8,8,0,0,0,2.66-.3,12.15,12.15,0,0,1,0-17.73A8,8,0,0,0,13.89,4.47Z"/><path class="cls-3" d="M58.09,28.05a13.25,13.25,0,0,0-13.3-13.31,18.57,18.57,0,0,0-4.44.74,10.84,10.84,0,0,0-10.71-10A10.72,10.72,0,0,0,18.92,16.22a13.15,13.15,0,0,0,.74,3.7H18.18a10.72,10.72,0,0,0-.37,21.43H45.52A13.36,13.36,0,0,0,58.09,28.05Z"/><path class="cls-4" d="M64,25.46a7.81,7.81,0,0,0-7.76-7.76,5.49,5.49,0,0,0-2.59.37A6.49,6.49,0,0,0,47,12.16a6.62,6.62,0,0,0-6.65,6.65A4.69,4.69,0,0,0,40.72,21H39.61A6.62,6.62,0,0,0,33,27.68a6.32,6.32,0,0,0,6.28,6.65H55.87C60.67,33.22,64,29.52,64,25.46Z"/><line class="cls-5" x1="17.44" y1="43.2" x2="17.44" y2="51.33"/><line class="cls-5" x1="20.4" y1="44.3" x2="14.48" y2="50.22"/><line class="cls-5" x1="21.51" y1="47.26" x2="13.38" y2="47.26"/><line class="cls-5" x1="20.4" y1="50.22" x2="14.48" y2="44.3"/><line class="cls-5" x1="30.37" y1="43.2" x2="30.37" y2="51.33"/><line class="cls-5" x1="33.33" y1="44.3" x2="27.42" y2="50.22"/><line class="cls-5" x1="34.44" y1="47.26" x2="26.31" y2="47.26"/><line class="cls-5" x1="33.33" y1="50.22" x2="27.42" y2="44.3"/><line class="cls-5" x1="44.79" y1="43.2" x2="44.79" y2="51.33"/><line class="cls-5" x1="47.74" y1="44.3" x2="41.83" y2="50.22"/><line class="cls-5" x1="48.85" y1="47.26" x2="40.72" y2="47.26"/><line class="cls-5" x1="47.74" y1="50.22" x2="41.83" y2="44.3"/><line class="cls-5" x1="23.72" y1="54.65" x2="23.72" y2="62.78"/><line class="cls-5" x1="26.68" y1="55.76" x2="20.77" y2="61.67"/><line class="cls-5" x1="27.79" y1="58.72" x2="19.66" y2="58.72"/><line class="cls-5" x1="26.68" y1="61.67" x2="20.77" y2="55.76"/><line class="cls-5" x1="36.66" y1="54.65" x2="36.66" y2="62.78"/><line class="cls-5" x1="39.61" y1="55.76" x2="33.7" y2="61.67"/><line class="cls-5" x1="40.72" y1="58.72" x2="32.59" y2="58.72"/><line class="cls-5" x1="39.61" y1="61.67" x2="33.7" y2="55.76"/></g></g></svg>