<svg xmlns="http://www.w3.org/2000/svg" width="64" height="64" viewBox="-18 -18 76 76"><defs><style>.cls-1{opacity:0;}.cls-2,.cls-5{fill:orange;}.cls-3{fill:#19324d;}.cls-3,.cls-4,.cls-5{stroke:#fff;stroke-width:0.5px;}.cls-3,.cls-4{stroke-linejoin:round;}.cls-4{fill:#93acc9;}</style></defs><title>icon_DMN_Fichier 491</title><g id="Calque_2" data-name="Calque 2" transform="scale(0.8)"><g id="Calque_1-2" data-name="Calque 1"><rect class="cls-1" width="64" height="64"/><polygon class="cls-2" points="2.21 6.22 3.06 7.35 4.19 7.92 3.06 8.78 2.21 9.91 1.64 8.78 0.5 7.92 1.64 7.35 2.21 6.22"/><polygon class="cls-2" points="22.66 16.16 23.23 17.58 24.65 18.15 23.23 18.72 22.66 20.14 22.09 18.72 20.67 18.15 22.09 17.58 22.66 16.16"/><path class="cls-2" d="M13.57,18.15a10.06,10.06,0,0,1,5.11-8.81,9.81,9.81,0,0,0-5.11-1.42,10.23,10.23,0,0,0,0,20.46A10.66,10.66,0,0,0,18.68,27,10.06,10.06,0,0,1,13.57,18.15Z"/><path class="cls-2" d="M13.57,29.51a11.36,11.36,0,1,1,0-22.72,11.91,11.91,0,0,1,5.68,1.42,1.47,1.47,0,0,1,.57,1.13,1.49,1.49,0,0,1-.57,1.14,8.94,8.94,0,0,0-4.54,7.67,8.61,8.61,0,0,0,4.54,7.67A1.49,1.49,0,0,1,19.82,27a1.47,1.47,0,0,1-.57,1.13A12.8,12.8,0,0,1,13.57,29.51Zm0-20.45a8.81,8.81,0,1,0,0,17.61,8,8,0,0,0,2.56-.28,11.67,11.67,0,0,1,0-17C15.56,9.34,14.71,9.06,13.57,9.06Z"/><path class="cls-3" d="M57.46,31.15A12.74,12.74,0,0,0,44.68,18.36a18.07,18.07,0,0,0-4.26.71,10.44,10.44,0,0,0-10.3-9.59,10.31,10.31,0,0,0-10.3,10.3,12.37,12.37,0,0,0,.71,3.55H19.11a10.3,10.3,0,0,0-.36,20.6H45.39A12.82,12.82,0,0,0,57.46,31.15Z"/><path class="cls-4" d="M63.5,28.66A7.5,7.5,0,0,0,56,21.2a5.19,5.19,0,0,0-2.48.36,6.25,6.25,0,0,0-6.4-5.68,6.36,6.36,0,0,0-6.39,6.39,4.45,4.45,0,0,0,.36,2.13H40.06a6.36,6.36,0,0,0-6.39,6.39,6.07,6.07,0,0,0,6,6.39h16C60,35.76,63.5,32.57,63.5,28.66Z"/><polygon class="cls-5" points="42.12 31.36 51.5 31.36 45.1 42.02 51.07 42.02 37.86 57.78 42.97 45.85 37.43 45.85 42.12 31.36"/></g></g></svg>