<svg xmlns="http://www.w3.org/2000/svg" width="64" height="64" viewBox="-18 -18 76 76"><defs><style>.cls-1{opacity:0;}.cls-2,.cls-5{fill:orange;}.cls-3{fill:#19324d;}.cls-3,.cls-4,.cls-5{stroke:#fff;stroke-width:0.5px;}.cls-3,.cls-4{stroke-linejoin:round;}.cls-4{fill:#93acc9;}</style></defs><title>icon_DMN_Fichier 481</title><g id="Calque_2" data-name="Calque 2" transform="scale(0.8)"><g id="Calque_1-2" data-name="Calque 1"><rect class="cls-1" width="64" height="64"/><polygon class="cls-2" points="1.7 0.21 2.27 1.34 3.68 1.91 2.27 2.76 1.7 3.89 1.13 2.76 0 1.91 1.13 1.34 1.7 0.21"/><polygon class="cls-2" points="22.09 10.12 22.66 11.54 23.79 12.11 22.66 12.67 22.09 14.09 21.24 12.67 20.11 12.11 21.24 11.54 22.09 10.12"/><path class="cls-2" d="M13,12.11a10,10,0,0,1,5.09-8.78A9.74,9.74,0,0,0,13,1.91,10.2,10.2,0,1,0,13,22.3a10.55,10.55,0,0,0,5.09-1.42A10,10,0,0,1,13,12.11Z"/><path class="cls-2" d="M13,23.43A11.33,11.33,0,1,1,13,.78a12.09,12.09,0,0,1,5.66,1.41,1.5,1.5,0,0,1,.57,1.14,1.48,1.48,0,0,1-.57,1.13,8.93,8.93,0,0,0-4.53,7.65,8.58,8.58,0,0,0,4.53,7.64,1.42,1.42,0,0,1,0,2.27A12.87,12.87,0,0,1,13,23.43ZM13,3A8.78,8.78,0,0,0,13,20.6a7.93,7.93,0,0,0,2.55-.28,11.62,11.62,0,0,1,0-17C14.73,3.33,13.88,3,13,3Z"/><path class="cls-3" d="M58,25.42A12.69,12.69,0,0,0,45.24,12.67a18,18,0,0,0-4.25.71A10.38,10.38,0,0,0,30.73,3.82,10.27,10.27,0,0,0,20.46,14.09a12.37,12.37,0,0,0,.71,3.54H19.75a10.27,10.27,0,0,0-.35,20.53H46C52.67,37.45,58,32.14,58,25.42Z"/><path class="cls-4" d="M64,30.37a7.47,7.47,0,0,0-7.43-7.43,5.3,5.3,0,0,0-2.48.35,6.4,6.4,0,0,0-12.74.36,4.54,4.54,0,0,0,.35,2.12H40.64a6.34,6.34,0,0,0-6.37,6.37,6,6,0,0,0,6,6.37H56.21C60.81,37.81,64,34.27,64,30.37Z"/><polygon class="cls-5" points="20.67 34.9 30.87 34.9 24.07 46.8 30.87 46.8 16 63.79 21.95 51.04 15.57 51.04 20.67 34.9"/></g></g></svg>