<?xml version="1.0" encoding="utf-8"?>
<!-- Generator: Adobe Illustrator 22.0.1, SVG Export Plug-In . SVG Version: 6.00 Build 0)  -->
<svg version="1.1" id="Calque_1" xmlns="http://www.w3.org/2000/svg" xmlns:xlink="http://www.w3.org/1999/xlink" x="0px" y="0px"
	width="64" height="64" viewBox="14 -7 25 68" style="enable-background:new 0 0 64 64;" xml:space="preserve">
<style type="text/css">
	.st0{fill:#FFA500;}
	.st1{fill:#93ACC9;stroke:#FFFFFF;stroke-width:1.2;stroke-linejoin:round;}
</style>
<g id="cloudy-day-1">
	<g transform="translate(20,10)">
		<g transform="translate(16,4), scale(0.8)">
			<g>
				<polygon class="st0" points="4.9,5.7 5.4,6.7 6.4,7.4 5.4,7.9 4.9,8.9 4.4,7.9 3.1,7.4 4.4,6.7 				"/>
			</g>
			<g>
				<polygon class="st0" points="22.6,14.7 23.4,15.7 24.4,16.2 23.4,16.9 22.6,17.9 22.1,16.9 21.1,16.2 22.1,15.7 				"/>
			</g>
			<g>
				<g>
					<path class="st0" d="M14.9,16.2c0-3.3,1.8-6.3,4.5-7.8c-1.3-0.8-2.8-1.3-4.5-1.3c-5,0-9,4-9,9s4,9,9,9c1.5,0,3.3-0.5,4.5-1.3
						C16.6,22.4,14.9,19.4,14.9,16.2z"/>
					<path class="st0" d="M14.9,26.2c-5.5,0-10-4.5-10-10s4.5-10,10-10c2,0,3.5,0.5,5,1.3c0.3,0.3,0.5,0.5,0.5,1s-0.3,0.8-0.5,1
						c-2.5,1.5-4,4-4,6.8s1.5,5.5,4,6.8c0.3,0.3,0.5,0.5,0.5,1s-0.3,0.8-0.5,1C18.1,26,16.6,26.2,14.9,26.2z M14.9,8.4
						c-4.3,0-7.8,3.5-7.8,7.8s3.5,7.8,7.8,7.8c0.8,0,1.5,0,2.3-0.3c-2-2-3.3-4.5-3.3-7.5s1.3-5.5,3.3-7.5
						C16.4,8.4,15.6,8.4,14.9,8.4z"/>
				</g>
			</g>
		</g>
		<g>
			<path class="st1" d="M27.7,24.4c0-4.6-3.7-8.2-8.2-8.2c-1,0-1.9,0.2-2.8,0.5c-0.3-3.4-3.1-6.2-6.6-6.2c-3.7,0-6.7,3-6.7,6.7
				c0,0.8,0.2,1.6,0.4,2.3c-0.3-0.1-0.7-0.1-1-0.1c-3.7,0-6.7,3-6.7,6.7c0,3.6,2.9,6.6,6.5,6.7h17.2C24.2,32.3,27.7,28.8,27.7,24.4z
				"/>
		</g>
	</g>
</g>
</svg>
