<svg xmlns="http://www.w3.org/2000/svg" width="64" height="64" viewBox="-18 -18 76 76"><defs><style>.cls-1{opacity:0;}.cls-2,.cls-5{fill:orange;}.cls-3{fill:#19324d;}.cls-3,.cls-4,.cls-5{stroke:#fff;stroke-width:0.5px;}.cls-3,.cls-4{stroke-linejoin:round;}.cls-4{fill:#93acc9;}.cls-6{fill:none;stroke:#93acc9;stroke-linecap:round;stroke-width:2px;stroke-dasharray:4 7;}</style></defs><title>icon_DMN_Fichier 471</title><g id="Calque_2" data-name="Calque 2" transform="scale(0.8)"><g id="Calque_1-2" data-name="Calque 1"><rect class="cls-1" width="64" height="64"/><polygon class="cls-2" points="1.73 4.79 2.3 5.94 3.74 6.51 2.3 7.38 1.73 8.53 1.15 7.38 0 6.51 1.15 5.94 1.73 4.79"/><polygon class="cls-2" points="22.46 14.87 23.04 16.31 24.19 16.88 23.04 17.46 22.46 18.9 21.6 17.46 20.45 16.88 21.6 16.31 22.46 14.87"/><path class="cls-2" d="M13.25,16.88A10.15,10.15,0,0,1,18.43,8a9.89,9.89,0,0,0-5.18-1.44,10.37,10.37,0,1,0,0,20.73,10.83,10.83,0,0,0,5.18-1.44A10.16,10.16,0,0,1,13.25,16.88Z"/><path class="cls-2" d="M13.25,28.4a11.52,11.52,0,0,1,0-23A12.24,12.24,0,0,1,19,6.8a1.46,1.46,0,0,1,0,2.31,9.06,9.06,0,0,0-4.61,7.77A8.74,8.74,0,0,0,19,24.66a1.49,1.49,0,0,1,.57,1.15A1.53,1.53,0,0,1,19,27,13.19,13.19,0,0,1,13.25,28.4Zm0-20.73a8.93,8.93,0,1,0,0,17.85,7.94,7.94,0,0,0,2.59-.29A11.83,11.83,0,0,1,15.84,8C15,8,14.11,7.67,13.25,7.67Z"/><path class="cls-3" d="M58.24,28.26a12.91,12.91,0,0,0-13-13A18.07,18.07,0,0,0,41,16,10.57,10.57,0,0,0,30.52,6.3,10.44,10.44,0,0,0,20.09,16.74a12.79,12.79,0,0,0,.72,3.6H19.37A10.44,10.44,0,0,0,19,41.21H45.64C52.48,40.49,58.24,35.1,58.24,28.26Z"/><path class="cls-4" d="M64,25.38a7.6,7.6,0,0,0-7.56-7.56,5.34,5.34,0,0,0-2.52.36,6.33,6.33,0,0,0-6.48-5.76A6.45,6.45,0,0,0,41,18.9a4.57,4.57,0,0,0,.36,2.16H40.24a6.45,6.45,0,0,0-6.48,6.48A6.16,6.16,0,0,0,39.88,34H56.44C60.76,32.94,64,29.7,64,25.38Z"/><polygon class="cls-5" points="20.3 29.84 30.67 29.84 23.76 41.94 30.24 41.94 15.55 59.21 21.16 46.25 14.69 46.25 20.3 29.84"/><line class="cls-6" x1="33.71" y1="46.13" x2="31.52" y2="58.54"/><line class="cls-6" x1="43.49" y1="44.57" x2="41.3" y2="56.97"/></g></g></svg>