<svg xmlns="http://www.w3.org/2000/svg" width="64" height="64" viewBox="-18 -18 76 76"><defs><style>.cls-1{opacity:0;}.cls-2,.cls-5{fill:orange;}.cls-3{fill:#19324d;}.cls-3,.cls-4,.cls-5{stroke:#fff;stroke-width:0.5px;}.cls-3,.cls-4{stroke-linejoin:round;}.cls-4{fill:#93acc9;}.cls-6{fill:none;stroke:#93acc9;stroke-linecap:round;stroke-width:2px;stroke-dasharray:4 4;}</style></defs><title>icon_DMN_Fichier 461</title><g id="Calque_2" data-name="Calque 2" transform="scale(0.8)"><g id="Calque_1-2" data-name="Calque 1"><rect class="cls-1" width="64" height="64"/><polygon class="cls-2" points="1.71 4.27 2.56 5.4 3.7 5.97 2.56 6.83 1.71 7.96 1.14 6.83 0 5.97 1.14 5.4 1.71 4.27"/><polygon class="cls-2" points="22.19 14.22 22.76 15.64 24.18 16.21 22.76 16.78 22.19 18.2 21.62 16.78 20.2 16.21 21.62 15.64 22.19 14.22"/><path class="cls-2" d="M13.08,16.21A10.05,10.05,0,0,1,18.2,7.4,9.73,9.73,0,0,0,13.08,6a10.24,10.24,0,0,0,0,20.48A10.66,10.66,0,0,0,18.2,25,10.07,10.07,0,0,1,13.08,16.21Z"/><path class="cls-2" d="M13.08,27.59a11.38,11.38,0,0,1,0-22.75,11.92,11.92,0,0,1,5.69,1.42,1.42,1.42,0,0,1,0,2.27,9,9,0,0,0-4.55,7.68,8.63,8.63,0,0,0,4.55,7.68,1.43,1.43,0,0,1,0,2.28A12.94,12.94,0,0,1,13.08,27.59Zm0-20.48a8.82,8.82,0,0,0,0,17.64,7.7,7.7,0,0,0,2.56-.29,11.7,11.7,0,0,1,0-17.06C15.08,7.4,14.22,7.11,13.08,7.11Z"/><path class="cls-3" d="M58.31,28.52a12.74,12.74,0,0,0-12.8-12.8,17.73,17.73,0,0,0-4.27.71,10.42,10.42,0,0,0-10.31-9.6A10.32,10.32,0,0,0,20.62,17.14a12.79,12.79,0,0,0,.71,3.55H19.91a10.32,10.32,0,0,0-.35,20.63H46.22A12.86,12.86,0,0,0,58.31,28.52Z"/><path class="cls-4" d="M64,26a7.51,7.51,0,0,0-7.47-7.47,5.25,5.25,0,0,0-2.49.36,6.43,6.43,0,0,0-12.8.35,4.45,4.45,0,0,0,.36,2.13H40.53a6.38,6.38,0,0,0-6.4,6.4,6.08,6.08,0,0,0,6,6.4h16C60.8,33.49,64,29.94,64,26Z"/><polygon class="cls-5" points="20.76 30.29 31 30.29 24.18 42.24 31 42.24 16.07 59.73 22.04 46.51 15.22 46.51 20.76 30.29"/><line class="cls-6" x1="33.49" y1="45.68" x2="31.33" y2="57.94"/><line class="cls-6" x1="40.35" y1="43.64" x2="38.19" y2="55.9"/><line class="cls-6" x1="46.05" y1="46.09" x2="43.89" y2="58.35"/></g></g></svg>