<svg xmlns="http://www.w3.org/2000/svg" width="64" height="64" viewBox="-22 -22 105 105"><defs><style>.cls-1{opacity:0;}.cls-2{fill:#19324d;stroke:#fff;stroke-width:0.5px;}.cls-2,.cls-3{stroke-linejoin:round;}.cls-3{fill:none;stroke:#93acc9;stroke-linecap:round;stroke-width:3px;}</style></defs><title>icon_DMN_Fichier 441</title><g id="Calque_2" data-name="Calque 2" transform="scale(0.8)"><g id="Calque_1-2" data-name="Calque 1"><rect class="cls-1" x="0.25" width="64" height="64"/><path class="cls-2" d="M63.32,38.31a17,17,0,0,0,.93-5.14A16.74,16.74,0,0,0,47.43,16.35a23.75,23.75,0,0,0-5.6.93A13.72,13.72,0,0,0,28.28,4.67,13.55,13.55,0,0,0,14.73,18.22a16.5,16.5,0,0,0,.94,4.67H13.8A13.55,13.55,0,0,0,.25,36.44v1.4l63.07.47Z"/><line class="cls-3" x1="2.12" y1="42.98" x2="63.25" y2="42.98"/><line class="cls-3" x1="2.12" y1="51.39" x2="63.25" y2="51.39"/><line class="cls-3" x1="2.12" y1="59.33" x2="63.25" y2="59.33"/></g></g></svg>