<svg xmlns="http://www.w3.org/2000/svg" width="64" height="64" viewBox="-22 -22 105 105"><defs><style>.cls-1{opacity:0;}.cls-2{fill:#19324d;stroke:#fff;stroke-width:0.5px;}.cls-2,.cls-3{stroke-linejoin:round;}.cls-3{fill:none;stroke:#93acc9;stroke-linecap:round;stroke-width:3px;}</style></defs><title>icon_DMN_Fichier 431</title><g id="Calque_2" data-name="Calque 2" transform="scale(0.8)"><g id="Calque_1-2" data-name="Calque 1"><rect class="cls-1" x="0.25" width="64" height="64"/><path class="cls-2" d="M63.32,42a20.1,20.1,0,0,0,.93-5.13A16.74,16.74,0,0,0,47.43,20.09a23.25,23.25,0,0,0-5.6.93A13.71,13.71,0,0,0,28.28,8.41,13.55,13.55,0,0,0,14.73,22a13.78,13.78,0,0,0,.94,4.67H13.8A13.55,13.55,0,0,0,.25,40.18V42Z"/><line class="cls-3" x1="2.12" y1="47.18" x2="63.25" y2="47.18"/><line class="cls-3" x1="2.12" y1="55.59" x2="63.25" y2="55.59"/></g></g></svg>