<svg xmlns="http://www.w3.org/2000/svg" width="64" height="64" viewBox="-20 -20 96 96"><defs><style>.cls-1{opacity:0;}.cls-2{isolation:isolate;}.cls-3{fill:#19324d;}.cls-4{fill:#fff;}</style></defs><title>icon_DMN_Fichier 421</title><g id="Calque_2" data-name="Calque 2" transform="scale(0.8)"><g id="Calque_1-2" data-name="Calque 1"><rect class="cls-1" width="64" height="64"/><g class="cls-2"><path class="cls-3" d="M26.66,56.4a28.52,28.52,0,0,1-7.9-1.06,28.93,28.93,0,0,1-6.21-2.5L10.3,55.13H7.53L7.1,38.4H9.91a42.89,42.89,0,0,0,2.41,5,24.65,24.65,0,0,0,3.39,4.73,17.32,17.32,0,0,0,4.45,3.56,11.54,11.54,0,0,0,5.75,1.38c2.95,0,5.22-.73,6.8-2.17a7.13,7.13,0,0,0,2.36-5.47,5.94,5.94,0,0,0-2-4.55,16.53,16.53,0,0,0-6.21-3.18l-5-1.64c-1.53-.5-3-1-4.32-1.54a14.26,14.26,0,0,1-6.93-5.32A13.81,13.81,0,0,1,8.31,21.5a12.11,12.11,0,0,1,1.17-5.2,13.77,13.77,0,0,1,3.42-4.49,16.81,16.81,0,0,1,5.51-3,21.79,21.79,0,0,1,7.3-1.18,23.41,23.41,0,0,1,7.21,1.08,28.85,28.85,0,0,1,5.28,2.15l2-2H43l.26,15.78h-2.8q-1-2.55-2.3-5.21A23,23,0,0,0,35.4,15a12.8,12.8,0,0,0-3.69-3,10.15,10.15,0,0,0-4.89-1.13,8.36,8.36,0,0,0-5.75,2,6.34,6.34,0,0,0-2.23,4.93,5.83,5.83,0,0,0,1.94,4.54,16.6,16.6,0,0,0,6,3.1q2.41.82,4.92,1.63t4.47,1.57a16,16,0,0,1,7.19,5.05,12.72,12.72,0,0,1,2.46,8,12.88,12.88,0,0,1-1.4,5.81,13.53,13.53,0,0,1-3.78,4.67,19.27,19.27,0,0,1-6,3.17A26,26,0,0,1,26.66,56.4Z"/></g><path class="cls-3" d="M46.62,37.6H3.81a3,3,0,0,1,0-5.94H46.62V25.73l15.68,8.9L46.62,44V37.6Z"/><path class="cls-4" d="M47.47,27.43l12.72,7.63L47.47,42.68V37.17H3.81a1.7,1.7,0,0,1,0-3.39H47.47V27.43m-2.12-3v6.78H3.81a3.82,3.82,0,0,0,0,7.63H45.35v6.78l3-1.69L61,36.33l3-1.7-3-1.69L48.32,25.31l-3-.85Z"/></g></g></svg>