<?xml version="1.0" encoding="utf-8"?>
<!-- Generator: Adobe Illustrator 22.0.1, SVG Export Plug-In . SVG Version: 6.00 Build 0)  -->
<svg version="1.1" id="Calque_1" xmlns="http://www.w3.org/2000/svg" xmlns:xlink="http://www.w3.org/1999/xlink" x="0px" y="0px"
	width="64" height="64" viewBox="0 0 64 64" style="enable-background:new 0 0 64 64;" xml:space="preserve">
<style type="text/css">
	.st0{filter:url(#blur);}
	.st1{fill:#FFA500;}
	.st2{fill:#93acc9;stroke:#FFFFFF;stroke-width:1.2;stroke-linejoin:round;}
</style>
<filter  height="100%" id="blur" width="100%">
	<feGaussianBlur  in="SourceAlpha" stdDeviation="3"></feGaussianBlur>
	<feOffset  dx="0" dy="4" result="offsetblur"></feOffset>
	<feComponentTransfer>
		<feFuncA  slope="0.05" type="linear"></feFuncA>
	</feComponentTransfer>
	<feMerge>
		<feMergeNode></feMergeNode>
		<feMergeNode  in="SourceGraphic"></feMergeNode>
	</feMerge>
</filter>
<g id="cloudy-day-2" class="st0">
	<g transform="translate(20,10)">
		<g transform="translate(16,4), scale(0.9)">
			<g>
				<polygon class="st1" points="3,4.1 3.5,5.1 4.5,5.8 3.5,6.3 3,7.3 2.5,6.3 1.3,5.8 2.5,5.1 				"/>
			</g>
			<g>
				<polygon class="st1" points="20.8,13.1 21.5,14.1 22.5,14.6 21.5,15.3 20.8,16.3 20.3,15.3 19.3,14.6 20.3,14.1 				"/>
			</g>
			<g>
				<g>
					<path class="st1" d="M13,14.6c0-3.3,1.8-6.3,4.5-7.8c-1.3-0.8-2.8-1.3-4.5-1.3c-5,0-9,4-9,9s4,9,9,9c1.5,0,3.3-0.5,4.5-1.3
						C14.8,20.8,13,17.8,13,14.6z"/>
					<path class="st1" d="M13,24.6c-5.5,0-10-4.5-10-10s4.5-10,10-10c2,0,3.5,0.5,5,1.3c0.3,0.3,0.5,0.5,0.5,1c0,0.5-0.3,0.8-0.5,1
						c-2.5,1.5-4,4-4,6.8c0,2.8,1.5,5.5,4,6.8c0.3,0.3,0.5,0.5,0.5,1c0,0.5-0.3,0.8-0.5,1C16.3,24.3,14.8,24.6,13,24.6z M13,6.8
						c-4.3,0-7.8,3.5-7.8,7.8s3.5,7.8,7.8,7.8c0.8,0,1.5,0,2.3-0.3c-2-2-3.3-4.5-3.3-7.5s1.3-5.5,3.3-7.5C14.5,6.8,13.8,6.8,13,6.8z
						"/>
				</g>
			</g>
		</g>
		<g>
			<path class="st2" d="M27.7,24.4c0-4.6-3.7-8.2-8.2-8.2c-1,0-1.9,0.2-2.8,0.5c-0.3-3.4-3.1-6.2-6.6-6.2c-3.7,0-6.7,3-6.7,6.7
				c0,0.8,0.2,1.6,0.4,2.3c-0.3-0.1-0.7-0.1-1-0.1c-3.7,0-6.7,3-6.7,6.7c0,3.6,2.9,6.6,6.5,6.7h17.2C24.2,32.3,27.7,28.8,27.7,24.4z
				"/>
		</g>
	</g>
</g>
</svg>
