<?xml version="1.0" encoding="utf-8"?>
<!-- Generator: Adobe Illustrator 22.0.1, SVG Export Plug-In . SVG Version: 6.00 Build 0)  -->
<svg version="1.1" id="Calque_1" xmlns="http://www.w3.org/2000/svg" xmlns:xlink="http://www.w3.org/1999/xlink" x="0px" y="0px"
	width="64" height="64" viewBox="0 0 64 64" style="enable-background:new 0 0 64 64;" xml:space="preserve">
<style type="text/css">
	.st0{filter:url(#blur);}
	.st1{fill:#FFA500;}
	.st2{fill:#19324d;stroke:#FFFFFF;stroke-width:1.2;stroke-linejoin:round;}
</style>
<filter  height="100%" id="blur" width="100%">
	<feGaussianBlur  in="SourceAlpha" stdDeviation="3"></feGaussianBlur>
	<feOffset  dx="0" dy="4" result="offsetblur"></feOffset>
	<feComponentTransfer>
		<feFuncA  slope="0.05" type="linear"></feFuncA>
	</feComponentTransfer>
	<feMerge>
		<feMergeNode></feMergeNode>
		<feMergeNode  in="SourceGraphic"></feMergeNode>
	</feMerge>
</filter>
<g id="cloudy-day-3" class="st0">
	<g transform="translate(20,10)">
		<g transform="translate(16,4), scale(0.8)">
			<g>
				<polygon class="st1" points="1.9,4.2 2.5,5.3 3.6,6.1 2.5,6.6 1.9,7.7 1.4,6.6 0,6.1 1.4,5.3 				"/>
			</g>
			<g>
				<polygon class="st1" points="21.3,14 22.1,15.1 23.2,15.6 22.1,16.4 21.3,17.5 20.7,16.4 19.6,15.6 20.7,15.1 				"/>
			</g>
			<g>
				<g>
					<path class="st1" d="M12.8,15.6c0-3.5,1.9-6.8,4.9-8.4c-1.4-0.8-3-1.4-4.9-1.4C7.4,5.8,3,10.2,3,15.6s4.4,9.8,9.8,9.8
						c1.6,0,3.5-0.5,4.9-1.4C14.7,22.4,12.8,19.1,12.8,15.6z"/>
					<path class="st1" d="M12.8,26.5c-6,0-10.9-4.9-10.9-10.9S6.8,4.7,12.8,4.7c2.2,0,3.8,0.5,5.4,1.4c0.3,0.3,0.5,0.5,0.5,1.1
						c0,0.5-0.3,0.8-0.5,1.1c-2.7,1.6-4.4,4.4-4.4,7.4c0,3,1.6,6,4.4,7.4c0.3,0.3,0.5,0.5,0.5,1.1c0,0.5-0.3,0.8-0.5,1.1
						C16.4,26.2,14.7,26.5,12.8,26.5z M12.8,7.2c-4.6,0-8.4,3.8-8.4,8.4S8.2,24,12.8,24c0.8,0,1.6,0,2.5-0.3
						c-2.2-2.2-3.5-4.9-3.5-8.2s1.4-6,3.5-8.2C14.5,7.2,13.6,7.2,12.8,7.2z"/>
				</g>
			</g>
		</g>
		<g>
			<path class="st2" d="M27.7,24.4c0-4.6-3.7-8.2-8.2-8.2c-1,0-1.9,0.2-2.8,0.5c-0.3-3.4-3.1-6.2-6.6-6.2c-3.7,0-6.7,3-6.7,6.7
				c0,0.8,0.2,1.6,0.4,2.3c-0.3-0.1-0.7-0.1-1-0.1c-3.7,0-6.7,3-6.7,6.7c0,3.6,2.9,6.6,6.5,6.7h17.2C24.2,32.3,27.7,28.8,27.7,24.4z
				"/>
		</g>
	</g>
</g>
</svg>
