<svg xmlns="http://www.w3.org/2000/svg" width="64" height="64" viewBox="-5 -5 64 64"><defs><style>.cls-1{opacity:0;}.cls-2{fill:orange;}.cls-3{fill:#93acc9;stroke:#fff;stroke-linejoin:round;stroke-width:0.5px;}</style></defs><title>icon_DMN_Fichier 591</title><g id="Calque_2" data-name="Calque 2" transform="scale(0.85)"><g id="Calque_1-2" data-name="Calque 1"><rect class="cls-1" x="0.25" width="64" height="64"/><polygon class="cls-2" points="23.01 21.31 23.89 22.47 25.05 23.05 23.89 23.93 23.01 25.09 22.43 23.93 21.27 23.05 22.43 22.47 23.01 21.31"/><polygon class="cls-2" points="43.96 31.78 44.83 32.95 45.99 33.53 44.83 34.4 43.96 35.56 43.38 34.4 42.21 33.53 43.38 32.95 43.96 31.78"/><path class="cls-2" d="M34.94,33.53a10.28,10.28,0,0,1,5.24-9,10.09,10.09,0,0,0-5.24-1.46,10.48,10.48,0,0,0,0,21,10.93,10.93,0,0,0,5.24-1.45A10.29,10.29,0,0,1,34.94,33.53Z"/><path class="cls-2" d="M34.94,45.16a11.64,11.64,0,1,1,0-23.27,12.23,12.23,0,0,1,5.82,1.46,1.45,1.45,0,0,1,0,2.32,9.19,9.19,0,0,0-4.66,7.86,8.82,8.82,0,0,0,4.66,7.85,1.46,1.46,0,0,1,0,2.33A15.58,15.58,0,0,1,34.94,45.16Zm0-20.94a9,9,0,1,0,0,18A8.09,8.09,0,0,0,37.56,42a12,12,0,0,1,0-17.45C36.69,24.51,35.81,24.22,34.94,24.22Z"/><path class="cls-3" d="M64.25,22.18a7.68,7.68,0,0,0-7.64-7.63,5.42,5.42,0,0,0-2.54.36,6.41,6.41,0,0,0-6.55-5.82A6.52,6.52,0,0,0,41,15.64a4.67,4.67,0,0,0,.36,2.18H40.25a6.52,6.52,0,0,0-6.55,6.54,6.23,6.23,0,0,0,6.19,6.55H56.25C61,29.82,64.25,26.18,64.25,22.18Z"/><path class="cls-3" d="M30.8,46.18a7.68,7.68,0,0,0-7.64-7.63,5.47,5.47,0,0,0-2.55.36,6.4,6.4,0,0,0-6.54-5.82,6.52,6.52,0,0,0-6.55,6.55,4.55,4.55,0,0,0,.37,2.18H6.8A6.52,6.52,0,0,0,.25,48.36a6.22,6.22,0,0,0,6.18,6.55H22.8C27.52,53.45,30.8,50.18,30.8,46.18Z"/></g></g></svg>