<svg xmlns="http://www.w3.org/2000/svg" width="64" height="64" viewBox="-18 -18 80 80"><defs><style>.cls-1{opacity:0;}.cls-2{fill:orange;}.cls-3{fill:#19324d;}.cls-3,.cls-4{stroke:#fff;stroke-linejoin:round;stroke-width:0.5px;}.cls-4{fill:#93acc9;}</style></defs><title>icon_DMN_Fichier 581</title><g id="Calque_2" data-name="Calque 2" transform="scale(0.8)"><g id="Calque_1-2" data-name="Calque 1"><rect class="cls-1" width="64" height="64"/><g id="cloudy-day-2"><polygon class="cls-2" points="2 14.59 2.57 16.02 3.72 16.59 2.57 17.16 2 18.59 1.14 17.16 0 16.59 1.14 16.02 2 14.59"/><polygon class="cls-2" points="22.31 24.89 23.17 26.32 24.31 26.89 23.17 27.46 22.31 28.6 21.74 27.46 20.59 26.89 21.74 26.32 22.31 24.89"/><path class="cls-2" d="M13.44,26.6a10.12,10.12,0,0,1,5.15-8.87,9.94,9.94,0,0,0-5.15-1.43,10.3,10.3,0,0,0,0,20.6,10.68,10.68,0,0,0,5.15-1.43A9.79,9.79,0,0,1,13.44,26.6Z"/><path class="cls-2" d="M13.44,38.33a11.44,11.44,0,0,1,0-22.88,12,12,0,0,1,5.72,1.43,1.41,1.41,0,0,1,0,2.28,9,9,0,0,0-4.57,7.73,8.68,8.68,0,0,0,4.57,7.72,1.42,1.42,0,0,1,0,2.29A15.21,15.21,0,0,1,13.44,38.33Zm0-20.6a8.87,8.87,0,0,0,0,17.74A7.85,7.85,0,0,0,16,35.18,11.75,11.75,0,0,1,16,18,7.85,7.85,0,0,0,13.44,17.73Z"/><path class="cls-3" d="M57.92,36.54A12.82,12.82,0,0,0,45.05,23.67a18.32,18.32,0,0,0-4.29.71,10.5,10.5,0,0,0-10.37-9.65A10.38,10.38,0,0,0,20,25.1a12.59,12.59,0,0,0,.72,3.57H19.31A10.37,10.37,0,0,0,19,49.41H45.77C52.56,48.7,57.92,43.33,57.92,36.54Z"/></g><path class="cls-4" d="M64,33.68a7.56,7.56,0,0,0-7.51-7.51,5.25,5.25,0,0,0-2.5.36,6.29,6.29,0,0,0-6.44-5.72,6.41,6.41,0,0,0-6.43,6.43,4.64,4.64,0,0,0,.35,2.15H40.4A6.41,6.41,0,0,0,34,35.83,6.11,6.11,0,0,0,40,42.26H56.13C60.78,41.19,64,38,64,33.68Z"/></g></g></svg>