<svg xmlns="http://www.w3.org/2000/svg" width="64" height="64" viewBox="-5 -5 27 27"><defs><style>.cls-1{fill:#57a0ee;stroke:#fff;stroke-linejoin:round;}.cls-1,.cls-2{stroke-width:0.5px;}.cls-2{fill:none;stroke:#91c0f8;stroke-linecap:round;stroke-dasharray:4 4;}</style></defs><title>icon_DMN_Fichier 71</title><g id="Calque_2" data-name="Calque 2"><g id="Calque_1-2" data-name="Calque 1"><g id="cloudy"><path class="cls-1" d="M10.09,3.88A2.12,2.12,0,0,0,8,1.74a2.14,2.14,0,0,0-.74.13A1.8,1.8,0,0,0,5.46.25,1.75,1.75,0,0,0,3.71,2a2.73,2.73,0,0,0,.08.61.57.57,0,0,0-.26,0A1.76,1.76,0,0,0,1.78,4.32,1.72,1.72,0,0,0,3.49,6.07H8A2.21,2.21,0,0,0,10.09,3.88Z"/><path class="cls-1" d="M14.07,8.78a3.58,3.58,0,0,0-3.58-3.59,3.88,3.88,0,0,0-1.23.22,2.91,2.91,0,0,0-5.82.22,3.69,3.69,0,0,0,.18,1,1.64,1.64,0,0,0-.44,0,2.93,2.93,0,0,0-.09,5.86h7.53A3.78,3.78,0,0,0,14.07,8.78Z"/></g><line class="cls-2" x1="4.07" y1="13.43" x2="3.46" y2="16.88"/><line class="cls-2" x1="5.94" y1="12.88" x2="5.33" y2="16.32"/><line class="cls-2" x1="7.59" y1="13.61" x2="6.98" y2="17.06"/></g></g></svg>