<?xml version="1.0" encoding="utf-8"?>
<!-- Generator: Adobe Illustrator 22.0.1, SVG Export Plug-In . SVG Version: 6.00 Build 0)  -->
<svg version="1.1" id="Calque_1" xmlns="http://www.w3.org/2000/svg" xmlns:xlink="http://www.w3.org/1999/xlink" x="0px" y="0px"
	 viewBox="0 0 64 64" style="enable-background:new 0 0 64 64;" xml:space="preserve">
<style type="text/css">
	.st0{filter:url(#blur);}
	.st1{fill:none;stroke:#FFA500;stroke-width:2;stroke-linecap:round;}
	.st2{fill:#FFA500;stroke:#FFA500;stroke-width:2;}
	.st3{fill:#57A0EE;stroke:#FFFFFF;stroke-width:1.2;stroke-linejoin:round;}
	.st4{fill:none;stroke:#91C0F8;stroke-width:2;stroke-linecap:round;stroke-dasharray:4,7;}
</style>
<filter  height="200%" id="blur" width="200%">
	<feGaussianBlur  in="SourceAlpha" stdDeviation="3"></feGaussianBlur>
	<feOffset  dx="0" dy="4" result="offsetblur"></feOffset>
	<feComponentTransfer>
		<feFuncA  slope="0.05" type="linear"></feFuncA>
	</feComponentTransfer>
	<feMerge>
		<feMergeNode></feMergeNode>
		<feMergeNode  in="SourceGraphic"></feMergeNode>
	</feMerge>
</filter>
<g id="rainy-2" class="st0">
	<g transform="translate(20,10)">
		<g transform="translate(0,16)">
			<g>
				<g>
					<line class="st1" x1="0" y1="9" x2="0" y2="12"/>
				</g>
				<g transform="rotate(45)">
					<line class="st1" x1="0" y1="9" x2="0" y2="12"/>
				</g>
				<g transform="rotate(90)">
					<line class="st1" x1="0" y1="9" x2="0" y2="12"/>
				</g>
				<g transform="rotate(135)">
					<line class="st1" x1="0" y1="9" x2="0" y2="12"/>
				</g>
				<g transform="rotate(180)">
					<line class="st1" x1="0" y1="9" x2="0" y2="12"/>
				</g>
				<g transform="rotate(225)">
					<line class="st1" x1="0" y1="9" x2="0" y2="12"/>
				</g>
				<g transform="rotate(270)">
					<line class="st1" x1="0" y1="9" x2="0" y2="12"/>
				</g>
				<g transform="rotate(315)">
					<line class="st1" x1="0" y1="9" x2="0" y2="12"/>
				</g>
			</g>
			<circle class="st2" cx="0" cy="0" r="5"/>
		</g>
		<g>
			<path class="st3" d="M27.7,24.4c0-4.6-3.7-8.2-8.2-8.2c-1,0-1.9,0.2-2.8,0.5c-0.3-3.4-3.1-6.2-6.6-6.2c-3.7,0-6.7,3-6.7,6.7
				c0,0.8,0.2,1.6,0.4,2.3c-0.3-0.1-0.7-0.1-1-0.1c-3.7,0-6.7,3-6.7,6.7c0,3.6,2.9,6.6,6.5,6.7h17.2C24.2,32.3,27.7,28.8,27.7,24.4z
				"/>
		</g>
	</g>
	<g transform="translate(37,45), rotate(10)">
		<line class="st4" x1="-6" y1="1" x2="-6" y2="9"/>
	</g>
</g>
</svg>
