<svg xmlns="http://www.w3.org/2000/svg" width="64" height="64" viewBox="-5 -5 27 27"><defs><style>.cls-1,.cls-4{fill:none;stroke-linecap:round;}.cls-1,.cls-2{stroke:orange;}.cls-1,.cls-2,.cls-3,.cls-4{stroke-width:0.5px;}.cls-2{fill:orange;}.cls-3{fill:#57a0ee;stroke:#fff;stroke-linejoin:round;}.cls-4{stroke:#91c0f8;stroke-dasharray:4 4;}</style></defs><title>icon_DMN_Fichier 211</title><g id="Calque_2" data-name="Calque 2"><g id="Calque_1-2" data-name="Calque 1"><g id="cloudy-day-2"><line class="cls-1" x1="5.5" y1="9.44" x2="5.5" y2="10.75"/><line class="cls-1" x1="2.69" y1="8.32" x2="1.76" y2="9.25"/><line class="cls-1" x1="1.56" y1="5.5" x2="0.25" y2="5.5"/><line class="cls-1" x1="2.69" y1="2.75" x2="1.76" y2="1.82"/><line class="cls-1" x1="5.5" y1="1.56" x2="5.5" y2="0.25"/><line class="cls-1" x1="8.26" y1="2.75" x2="9.18" y2="1.82"/><line class="cls-1" x1="9.44" y1="5.5" x2="10.75" y2="5.5"/><line class="cls-1" x1="8.26" y1="8.32" x2="9.18" y2="9.25"/><circle class="cls-2" cx="5.5" cy="5.5" r="2.19"/><path class="cls-3" d="M17.62,9.17A3.57,3.57,0,0,0,14,5.59a3.52,3.52,0,0,0-1.22.22A2.91,2.91,0,0,0,7,6a4.1,4.1,0,0,0,.17,1,1.6,1.6,0,0,0-.44,0,2.93,2.93,0,0,0-.08,5.86h7.52A3.78,3.78,0,0,0,17.62,9.17Z"/></g><line class="cls-4" x1="9.25" y1="14.66" x2="8.64" y2="18.11"/><line class="cls-4" x1="11.12" y1="14.1" x2="10.52" y2="17.55"/><line class="cls-4" x1="12.77" y1="14.84" x2="12.16" y2="18.28"/></g></g></svg>