<svg xmlns="http://www.w3.org/2000/svg" width="64" height="64" viewBox="-5 -5 27 27"><defs><style>.cls-1{fill:none;stroke:#57a0ee;stroke-linecap:round;}.cls-1,.cls-2,.cls-3{stroke-width:0.5px;}.cls-2{fill:#c6deff;}.cls-2,.cls-3{stroke:#fff;stroke-linejoin:round;}.cls-3{fill:#57a0ee;}</style></defs><title>icon_DMN_Fichier 91</title><g id="Calque_2" data-name="Calque 2"><g id="Calque_1-2" data-name="Calque 1"><line class="cls-1" x1="4.84" y1="13.02" x2="4.84" y2="15.21"/><line class="cls-1" x1="5.63" y1="13.38" x2="4.1" y2="14.91"/><line class="cls-1" x1="5.94" y1="14.12" x2="3.75" y2="14.12"/><line class="cls-1" x1="5.63" y1="14.91" x2="4.1" y2="13.38"/><g id="cloudy"><path class="cls-2" d="M10.09,3.88A2.12,2.12,0,0,0,8,1.74a2.14,2.14,0,0,0-.74.13A1.79,1.79,0,0,0,5.46.25,1.75,1.75,0,0,0,3.71,2a2.73,2.73,0,0,0,.08.61.57.57,0,0,0-.26,0A1.76,1.76,0,0,0,1.78,4.32,1.72,1.72,0,0,0,3.49,6.07H8A2.21,2.21,0,0,0,10.09,3.88Z"/><path class="cls-3" d="M14.07,8.78a3.57,3.57,0,0,0-3.58-3.59,3.88,3.88,0,0,0-1.23.22,2.91,2.91,0,0,0-5.82.22,3.69,3.69,0,0,0,.18,1,1.64,1.64,0,0,0-.44,0,2.93,2.93,0,0,0-.09,5.86h7.53A3.78,3.78,0,0,0,14.07,8.78Z"/></g><line class="cls-1" x1="8.78" y1="13.02" x2="8.78" y2="15.21"/><line class="cls-1" x1="9.57" y1="13.38" x2="8.04" y2="14.91"/><line class="cls-1" x1="9.88" y1="14.12" x2="7.69" y2="14.12"/><line class="cls-1" x1="9.57" y1="14.91" x2="8.04" y2="13.38"/></g></g></svg>