<svg xmlns="http://www.w3.org/2000/svg" width="64" height="64" viewBox="-5 -5 27 27"><defs><style>.cls-1{fill:#c6deff;}.cls-1,.cls-2{stroke:#fff;stroke-linejoin:round;}.cls-1,.cls-2,.cls-3{stroke-width:0.5px;}.cls-2{fill:#57a0ee;}.cls-3{fill:none;stroke:#57a0ee;stroke-linecap:round;}</style></defs><title>icon_DMN_Fichier 101</title><g id="Calque_2" data-name="Calque 2"><g id="Calque_1-2" data-name="Calque 1"><g id="cloudy"><path class="cls-1" d="M10.09,3.88A2.12,2.12,0,0,0,8,1.74a2.24,2.24,0,0,0-.75.13A1.79,1.79,0,0,0,5.45.25,1.76,1.76,0,0,0,3.7,2a2.71,2.71,0,0,0,.09.61.59.59,0,0,0-.26,0A1.76,1.76,0,0,0,1.78,4.32,1.72,1.72,0,0,0,3.49,6.07H8A2.27,2.27,0,0,0,10.09,3.88Z"/><path class="cls-2" d="M14.07,8.74a3.57,3.57,0,0,0-3.58-3.59,3.88,3.88,0,0,0-1.23.22,2.91,2.91,0,0,0-5.82.22,3.55,3.55,0,0,0,.18,1,1.64,1.64,0,0,0-.44,0,2.93,2.93,0,0,0-.09,5.86h7.53A3.78,3.78,0,0,0,14.07,8.74Z"/></g><line class="cls-3" x1="3.31" y1="12.76" x2="3.31" y2="14.95"/><line class="cls-3" x1="4.1" y1="13.07" x2="2.57" y2="14.6"/><line class="cls-3" x1="4.41" y1="13.86" x2="2.22" y2="13.86"/><line class="cls-3" x1="4.1" y1="14.6" x2="2.57" y2="13.07"/><line class="cls-3" x1="6.81" y1="12.76" x2="6.81" y2="14.95"/><line class="cls-3" x1="7.6" y1="13.07" x2="6.07" y2="14.6"/><line class="cls-3" x1="7.91" y1="13.86" x2="5.72" y2="13.86"/><line class="cls-3" x1="7.6" y1="14.6" x2="6.07" y2="13.07"/><line class="cls-3" x1="10.75" y1="12.76" x2="10.75" y2="14.95"/><line class="cls-3" x1="11.54" y1="13.07" x2="10.01" y2="14.6"/><line class="cls-3" x1="11.84" y1="13.86" x2="9.66" y2="13.86"/><line class="cls-3" x1="11.54" y1="14.6" x2="10.01" y2="13.07"/></g></g></svg>