<svg xmlns="http://www.w3.org/2000/svg" width="64" height="64" viewBox="-5 -5 27 27"><defs><style>.cls-1{fill:#c6deff;}.cls-1,.cls-2{stroke:#fff;stroke-linejoin:round;}.cls-1,.cls-2,.cls-3{stroke-width:0.5px;}.cls-2{fill:#57a0ee;}.cls-3{fill:none;stroke:#57a0ee;stroke-linecap:round;}</style></defs><title>icon_DMN_Fichier 111</title><g id="Calque_2" data-name="Calque 2"><g id="Calque_1-2" data-name="Calque 1"><g id="cloudy"><path class="cls-1" d="M10.09,3.88A2.12,2.12,0,0,0,8,1.74a2.14,2.14,0,0,0-.74.13A1.8,1.8,0,0,0,5.46.25,1.75,1.75,0,0,0,3.71,2a2.73,2.73,0,0,0,.08.61.59.59,0,0,0-.26,0A1.76,1.76,0,0,0,1.78,4.32,1.72,1.72,0,0,0,3.49,6.07H8A2.26,2.26,0,0,0,10.09,3.88Z"/><path class="cls-2" d="M14.07,8.74a3.58,3.58,0,0,0-3.58-3.59,3.88,3.88,0,0,0-1.23.22,2.91,2.91,0,0,0-5.82.22,3.55,3.55,0,0,0,.18,1,1.64,1.64,0,0,0-.44,0,2.93,2.93,0,0,0-.09,5.86h7.53A3.78,3.78,0,0,0,14.07,8.74Z"/></g><line class="cls-3" x1="3.35" y1="12.76" x2="3.35" y2="14.95"/><line class="cls-3" x1="4.14" y1="13.07" x2="2.57" y2="14.64"/><line class="cls-3" x1="4.45" y1="13.86" x2="2.26" y2="13.86"/><line class="cls-3" x1="4.14" y1="14.64" x2="2.57" y2="13.07"/><line class="cls-3" x1="6.85" y1="12.76" x2="6.85" y2="14.95"/><line class="cls-3" x1="7.64" y1="13.07" x2="6.07" y2="14.64"/><line class="cls-3" x1="7.95" y1="13.86" x2="5.76" y2="13.86"/><line class="cls-3" x1="7.64" y1="14.64" x2="6.07" y2="13.07"/><line class="cls-3" x1="10.79" y1="12.76" x2="10.79" y2="14.95"/><line class="cls-3" x1="11.58" y1="13.07" x2="10" y2="14.64"/><line class="cls-3" x1="11.89" y1="13.86" x2="9.7" y2="13.86"/><line class="cls-3" x1="11.58" y1="14.64" x2="10" y2="13.07"/><line class="cls-3" x1="5.1" y1="15.83" x2="5.1" y2="18.01"/><line class="cls-3" x1="5.89" y1="16.13" x2="4.32" y2="17.71"/><line class="cls-3" x1="6.2" y1="16.92" x2="4.01" y2="16.92"/><line class="cls-3" x1="5.89" y1="17.71" x2="4.32" y2="16.13"/><line class="cls-3" x1="8.6" y1="15.83" x2="8.6" y2="18.01"/><line class="cls-3" x1="9.39" y1="16.13" x2="7.82" y2="17.71"/><line class="cls-3" x1="9.7" y1="16.92" x2="7.51" y2="16.92"/><line class="cls-3" x1="9.39" y1="17.71" x2="7.82" y2="16.13"/></g></g></svg>