<svg xmlns="http://www.w3.org/2000/svg" width="64" height="64" viewBox="-5 -5 27 27"><defs><style>.cls-1,.cls-5{fill:none;stroke-linecap:round;}.cls-1,.cls-2{stroke:orange;}.cls-1,.cls-2,.cls-3,.cls-4,.cls-5{stroke-width:0.5px;}.cls-2{fill:orange;}.cls-3{fill:#57a0ee;}.cls-3,.cls-4{stroke:#fff;stroke-linejoin:round;}.cls-4{fill:#91c0f8;}.cls-5{stroke:#57a0ee;}</style></defs><title>icon_DMN_Fichier 121</title><g id="Calque_2" data-name="Calque 2"><g id="Calque_1-2" data-name="Calque 1"><g id="cloudy-day-2"><line class="cls-1" x1="5.5" y1="9.44" x2="5.5" y2="10.75"/><line class="cls-1" x1="2.7" y1="8.3" x2="1.77" y2="9.22"/><line class="cls-1" x1="1.56" y1="5.5" x2="0.25" y2="5.5"/><line class="cls-1" x1="2.7" y1="2.73" x2="1.77" y2="1.8"/><line class="cls-1" x1="5.5" y1="1.56" x2="5.5" y2="0.25"/><line class="cls-1" x1="8.27" y1="2.73" x2="9.2" y2="1.8"/><line class="cls-1" x1="9.44" y1="5.5" x2="10.75" y2="5.5"/><line class="cls-1" x1="8.27" y1="8.3" x2="9.2" y2="9.22"/><circle class="cls-2" cx="5.5" cy="5.5" r="2.19"/><path class="cls-3" d="M17.62,9.18A3.57,3.57,0,0,0,14,5.59a3.77,3.77,0,0,0-1.22.22A2.91,2.91,0,0,0,7,6a4.1,4.1,0,0,0,.17,1,1.57,1.57,0,0,0-.43,0,2.93,2.93,0,0,0-.09,5.86h7.52A3.78,3.78,0,0,0,17.62,9.18Z"/></g><path class="cls-4" d="M19.28,8.43a2.12,2.12,0,0,0-2.14-2.14,2.24,2.24,0,0,0-.75.13A1.79,1.79,0,0,0,14.64,4.8a1.76,1.76,0,0,0-1.75,1.75,2.71,2.71,0,0,0,.09.61.59.59,0,0,0-.26,0A1.75,1.75,0,0,0,11,8.87a1.72,1.72,0,0,0,1.7,1.75h4.51A2.27,2.27,0,0,0,19.28,8.43Z"/><line class="cls-5" x1="6.64" y1="13.24" x2="6.64" y2="15.43"/><line class="cls-5" x1="7.43" y1="13.55" x2="5.85" y2="15.13"/><line class="cls-5" x1="7.73" y1="14.34" x2="5.54" y2="14.34"/><line class="cls-5" x1="7.43" y1="15.13" x2="5.85" y2="13.55"/><line class="cls-5" x1="10.14" y1="13.24" x2="10.14" y2="15.43"/><line class="cls-5" x1="10.93" y1="13.55" x2="9.35" y2="15.13"/><line class="cls-5" x1="11.23" y1="14.34" x2="9.04" y2="14.34"/><line class="cls-5" x1="10.93" y1="15.13" x2="9.35" y2="13.55"/><line class="cls-5" x1="14.07" y1="13.24" x2="14.07" y2="15.43"/><line class="cls-5" x1="14.86" y1="13.55" x2="13.29" y2="15.13"/><line class="cls-5" x1="15.17" y1="14.34" x2="12.98" y2="14.34"/><line class="cls-5" x1="14.86" y1="15.13" x2="13.29" y2="13.55"/><line class="cls-5" x1="8.39" y1="16.31" x2="8.39" y2="18.49"/><line class="cls-5" x1="9.18" y1="16.61" x2="7.6" y2="18.19"/><line class="cls-5" x1="9.48" y1="17.4" x2="7.29" y2="17.4"/><line class="cls-5" x1="9.18" y1="18.19" x2="7.6" y2="16.61"/><line class="cls-5" x1="11.89" y1="16.31" x2="11.89" y2="18.49"/><line class="cls-5" x1="12.68" y1="16.61" x2="11.1" y2="18.19"/><line class="cls-5" x1="12.98" y1="17.4" x2="10.79" y2="17.4"/><line class="cls-5" x1="12.68" y1="18.19" x2="11.1" y2="16.61"/></g></g></svg>