<svg xmlns="http://www.w3.org/2000/svg" width="64" height="64" viewBox="-5 -5 27 27"><defs><style>.cls-1{fill:#57a0ee;stroke:#fff;}.cls-1,.cls-2{stroke-linejoin:round;stroke-width:0.5px;}.cls-2{fill:none;stroke:#91c0f8;stroke-linecap:round;}</style></defs><title>icon_DMN_Fichier 191</title><g id="Calque_2" data-name="Calque 2"><g id="Calque_1-2" data-name="Calque 1"><path class="cls-1" d="M13.9,7.42a3,3,0,0,0,.17-1.09,3.57,3.57,0,0,0-3.58-3.59A3.88,3.88,0,0,0,9.26,3a2.91,2.91,0,0,0-5.82.22,3.69,3.69,0,0,0,.18,1,1.32,1.32,0,0,0-.44-.05A2.93,2.93,0,0,0,.25,7.07v.35Z"/><line class="cls-2" x1="0.73" y1="8.47" x2="14.07" y2="8.47"/><line class="cls-2" x1="0.73" y1="10.22" x2="14.07" y2="10.22"/><line class="cls-2" x1="0.73" y1="11.97" x2="14.07" y2="11.97"/></g></g></svg>