<svg xmlns="http://www.w3.org/2000/svg" width="64" height="64" viewBox="-5 -5 27 27"><defs><style>.cls-1,.cls-2{isolation:isolate;font-size:15.75px;font-family:Georgia-Bold, Georgia;font-weight:700;}.cls-1,.cls-3{fill:#57a0ee;}.cls-2{fill:none;stroke:#fff;stroke-linejoin:round;stroke-width:0.5px;}.cls-4{fill:#fff;}</style></defs><title>icon_DMN_Fichier 201</title><g id="Calque_2" data-name="Calque 2"><g id="Calque_1-2" data-name="Calque 1"><text class="cls-1" transform="translate(1.18 13.58)">S</text><text class="cls-2" transform="translate(1.18 13.58)">S</text><path class="cls-3" d="M10.94,9.51H.87a.66.66,0,0,1-.65-.65A.67.67,0,0,1,.87,8.2H10.94V6.71l3.67,2.15L10.94,11V9.51Z"/><path class="cls-4" d="M11.16,7.11l3,1.75-3,1.75V9.29H.87a.44.44,0,0,1,0-.87H11.16V7.11m-.44-.75V8H.88a.88.88,0,1,0,0,1.75h9.84v1.62l.66-.39,3-1.75.66-.4-.66-.39-3-1.75-.66-.31Z"/></g></g></svg>