<svg xmlns="http://www.w3.org/2000/svg" width="64" height="64" viewBox="-5 -5 27 27"><defs><style>.cls-1{fill:none;stroke-linecap:round;}.cls-1,.cls-2{stroke:orange;}.cls-1,.cls-2,.cls-3{stroke-width:0.5px;}.cls-2{fill:orange;}.cls-3{fill:#91c0f8;stroke:#fff;stroke-linejoin:round;}</style></defs><title>icon_DMN_Fichier 31</title><g id="Calque_2" data-name="Calque 2"><g id="Calque_1-2" data-name="Calque 1"><g id="day"><line class="cls-1" x1="9" y1="11.01" x2="9" y2="12.33"/><line class="cls-1" x1="6.22" y1="9.88" x2="5.29" y2="10.8"/><line class="cls-1" x1="5.06" y1="7.08" x2="3.75" y2="7.08"/><line class="cls-1" x1="6.22" y1="4.31" x2="5.29" y2="3.38"/><line class="cls-1" x1="9" y1="3.14" x2="9" y2="1.83"/><line class="cls-1" x1="11.79" y1="4.31" x2="12.71" y2="3.38"/><line class="cls-1" x1="12.94" y1="7.08" x2="14.25" y2="7.08"/><line class="cls-1" x1="11.79" y1="9.88" x2="12.71" y2="10.8"/><circle class="cls-2" cx="9" cy="7.08" r="2.19"/></g><path class="cls-3" d="M17.75,3.88a2.12,2.12,0,0,0-2.14-2.14,2.19,2.19,0,0,0-.75.13A1.79,1.79,0,0,0,13.11.25,1.76,1.76,0,0,0,11.36,2a2.71,2.71,0,0,0,.09.61.59.59,0,0,0-.26,0A1.76,1.76,0,0,0,9.44,4.32a1.72,1.72,0,0,0,1.7,1.75h4.51A2.27,2.27,0,0,0,17.75,3.88Z"/><path class="cls-3" d="M8.56,10.44A2.12,2.12,0,0,0,6.42,8.3a2.14,2.14,0,0,0-.74.13A1.81,1.81,0,0,0,3.93,6.81,1.75,1.75,0,0,0,2.18,8.56a2.91,2.91,0,0,0,.08.62.47.47,0,0,0-.26,0A1.76,1.76,0,0,0,.25,10.88,1.72,1.72,0,0,0,2,12.63h4.5A2.26,2.26,0,0,0,8.56,10.44Z"/></g></g></svg>